<?xml version="1.0" encoding="UTF-8" standalone="no"?>
<!-- Created with Inkscape (http://www.inkscape.org/) -->

<svg
   xmlns:dc="http://purl.org/dc/elements/1.1/"
   xmlns:cc="http://creativecommons.org/ns#"
   xmlns:rdf="http://www.w3.org/1999/02/22-rdf-syntax-ns#"
   xmlns:svg="http://www.w3.org/2000/svg"
   xmlns="http://www.w3.org/2000/svg"
   xmlns:sodipodi="http://sodipodi.sourceforge.net/DTD/sodipodi-0.dtd"
   xmlns:inkscape="http://www.inkscape.org/namespaces/inkscape"
   width="16"
   height="16"
   viewBox="0 0 4.2333332 4.2333335"
   version="1.1"
   id="svg2000"
   inkscape:version="0.92.3 (2405546, 2018-03-11)"
   sodipodi:docname="logo.svg">
  <defs
     id="defs1994" />
  <sodipodi:namedview
     id="base"
     pagecolor="#ffffff"
     bordercolor="#666666"
     borderopacity="1.0"
     inkscape:pageopacity="0.0"
     inkscape:pageshadow="2"
     inkscape:zoom="11.453575"
     inkscape:cx="9.9732716"
     inkscape:cy="15.681792"
     inkscape:document-units="px"
     inkscape:current-layer="layer1"
     showgrid="false"
     units="px"
     inkscape:window-width="1469"
     inkscape:window-height="978"
     inkscape:window-x="2312"
     inkscape:window-y="962"
     inkscape:window-maximized="0">
    <inkscape:grid
       type="xygrid"
       id="grid2545"
       empspacing="4"
       spacingx="0.13229167"
       spacingy="0.13229167" />
  </sodipodi:namedview>
  <metadata
     id="metadata1997">
    <rdf:RDF>
      <cc:Work
         rdf:about="">
        <dc:format>image/svg+xml</dc:format>
        <dc:type
           rdf:resource="http://purl.org/dc/dcmitype/StillImage" />
        <dc:title />
      </cc:Work>
    </rdf:RDF>
  </metadata>
  <g
     inkscape:label="Layer 1"
     inkscape:groupmode="layer"
     id="layer1"
     transform="translate(0,-292.76665)">
    <path
       style="opacity:1;fill:#000000;fill-opacity:1;stroke:none;stroke-width:0;stroke-linecap:round;stroke-linejoin:round;stroke-miterlimit:4;stroke-dasharray:none;stroke-dashoffset:0;stroke-opacity:1"
       d="M 5 2 C 3.8954305 1.9999999 2.9999999 2.8954305 3 4 L 3 14 L 4 14 L 4 4 C 4 3.4477152 4.4477152 3 5 3 L 10 3 C 10.552285 3 11 3.4477152 11 4 L 11 14 L 12 14 L 13.490234 14 A 0.49999997 0.49999997 0 0 0 13.5 14 A 0.49999997 0.49999997 0 0 0 13.990234 13.5 A 0.49999997 0.49999997 0 0 0 13.5 13 L 13.490234 13 L 12 13 L 12 4 C 12 2.8954305 11.10457 1.9999999 10 2 L 5 2 z "
       transform="matrix(0.26458333,0,0,0.26458333,0,292.76665)"
       id="rect2547" />
    <path
       style="fill:none;stroke:#000000;stroke-width:0.265;stroke-linecap:round;stroke-linejoin:miter;stroke-opacity:1;stroke-miterlimit:4;stroke-dasharray:none"
       d="m 0.52916666,293.82498 -0.26458333,1.05834"
       id="path2559"
       inkscape:connector-curvature="0" />
    <path
       style="fill:none;stroke:#000000;stroke-width:0.265;stroke-linecap:round;stroke-linejoin:miter;stroke-opacity:1;stroke-miterlimit:4;stroke-dasharray:none"
       d="m 3.4395833,293.82498 0.2645833,1.05834"
       id="path2561"
       inkscape:connector-curvature="0" />
    <path
       style="opacity:1;fill:#000000;fill-opacity:1;stroke:none;stroke-width:0;stroke-linecap:round;stroke-linejoin:round;stroke-miterlimit:4;stroke-dasharray:none;stroke-dashoffset:0;stroke-opacity:1"
       d="M 5.5 4 A 0.49999997 0.49999997 0 0 0 5 4.5 L 5 5.5 A 0.49999997 0.49999997 0 0 0 5.5 6 A 0.49999997 0.49999997 0 0 0 6 5.5 L 6 4.5 A 0.49999997 0.49999997 0 0 0 5.5 4 z "
       transform="matrix(0.26458333,0,0,0.26458333,0,292.76665)"
       id="path2594" />
    <circle
       style="opacity:1;fill:#000000;fill-opacity:1;stroke:none;stroke-width:0;stroke-linecap:round;stroke-linejoin:round;stroke-miterlimit:4;stroke-dasharray:none;stroke-dashoffset:0;stroke-opacity:1"
       id="path2596"
       cx="1.984375"
       cy="294.48645"
       r="0.13229166" />
    <path
       style="opacity:1;fill:#000000;fill-opacity:1;stroke:none;stroke-width:0;stroke-linecap:round;stroke-linejoin:round;stroke-miterlimit:4;stroke-dasharray:none;stroke-dashoffset:0;stroke-opacity:1"
       d="M 9.5 4 A 0.49999997 0.49999997 0 0 0 9 4.5 L 9 5.5 A 0.49999997 0.49999997 0 0 0 9.5 6 A 0.49999997 0.49999997 0 0 0 10 5.5 L 10 4.5 A 0.49999997 0.49999997 0 0 0 9.5 4 z "
       transform="matrix(0.26458333,0,0,0.26458333,0,292.76665)"
       id="path2598" />
    <path
       style="fill:#000000;fill-opacity:1;stroke:none;stroke-width:0.26458332px;stroke-linecap:butt;stroke-linejoin:miter;stroke-opacity:1"
       d="m 1.7197917,295.1479 h 0.5291667 l -0.2645833,0.39687 c 0.098148,0.19323 0.1941346,0.3334 0.396875,0.39688 v 0.26458 H 2.1166667 c -0.2183707,-0.11447 -0.1611379,-0.45552 -0.1322919,-0.6614 z"
       id="path2563-4"
       inkscape:connector-curvature="0"
       sodipodi:nodetypes="cccccccc" />
  </g>
</svg>
